<svg width="13" height="11" viewBox="0 0 13 11" fill="none" xmlns="http://www.w3.org/2000/svg">
<path d="M12.0819 1.96344L4.36761 9.67772C4.20687 9.83841 3.98889 9.92868 3.76161 9.92868C3.53432 9.92868 3.31634 9.83841 3.15561 9.67772L0.584177 7.10629C0.428042 6.94463 0.341646 6.72812 0.343599 6.50338C0.345552 6.27864 0.435697 6.06366 0.594618 5.90474C0.75354 5.74581 0.968522 5.65567 1.19326 5.65372C1.418 5.65176 1.63452 5.73816 1.79618 5.89429L3.76161 7.85972L10.8699 0.751437C10.949 0.669571 11.0435 0.604272 11.1481 0.55935C11.2527 0.514428 11.3652 0.490783 11.479 0.489794C11.5928 0.488805 11.7057 0.510492 11.811 0.553589C11.9163 0.596687 12.012 0.660333 12.0925 0.740812C12.173 0.821292 12.2366 0.916994 12.2797 1.02233C12.3228 1.12767 12.3445 1.24054 12.3435 1.35435C12.3425 1.46816 12.3189 1.58064 12.274 1.68521C12.2291 1.78979 12.1638 1.88437 12.0819 1.96344Z" fill="white"/>
<path d="M12.0819 1.96344L4.36761 9.67772C4.20687 9.83841 3.98889 9.92868 3.76161 9.92868C3.53432 9.92868 3.31634 9.83841 3.15561 9.67772L0.584177 7.10629C0.428042 6.94463 0.341646 6.72812 0.343599 6.50338C0.345552 6.27864 0.435697 6.06366 0.594618 5.90474C0.75354 5.74581 0.968522 5.65567 1.19326 5.65372C1.418 5.65176 1.63452 5.73816 1.79618 5.89429L3.76161 7.85972L10.8699 0.751437C10.949 0.669571 11.0435 0.604272 11.1481 0.55935C11.2527 0.514428 11.3652 0.490783 11.479 0.489794C11.5928 0.488805 11.7057 0.510492 11.811 0.553589C11.9163 0.596687 12.012 0.660333 12.0925 0.740812C12.173 0.821292 12.2366 0.916994 12.2797 1.02233C12.3228 1.12767 12.3445 1.24054 12.3435 1.35435C12.3425 1.46816 12.3189 1.58064 12.274 1.68521C12.2291 1.78979 12.1638 1.88437 12.0819 1.96344Z" fill="white"/>
</svg>
